<?xml version="1.0" encoding="UTF-8"?>
<svg id="Capa_2" data-name="Capa 2" xmlns="http://www.w3.org/2000/svg" viewBox="0 0 1080 1080">
  <defs>
    <style>
      .cls-1 {
        fill: #005fcf;
      }

      .cls-2 {
        fill: #ed1c24;
      }

      .cls-3 {
        fill: none;
      }

      .cls-4 {
        fill: #ffb600;
      }
    </style>
  </defs>
  <g id="Capa_1-2" data-name="Capa 1">
    <path class="cls-2" d="M282.14,835.57H0v244.43h1080v-244.43h-282.16c-146.99,128.53-368.08,129.02-515.7,0Z"/>
    <path class="cls-4" d="M262.54,262.76c151.21-151.25,395.85-153.44,549.69-5.13,76.62,73.86,116.69,171.54,119.75,270.27h148.01V0H0v527.9h148.02c2.95-96.23,41.04-191.64,114.52-265.14Z"/>
    <path class="cls-1" d="M249.86,803.96c-70.87-77.69-104.86-177.31-101.84-276.07H0v307.68h282.14c-11.2-9.79-21.99-20.32-32.28-31.61Z"/>
    <g>
      <path class="cls-2" d="M150.56,238.17c-5.38-4.97-9.3-11.26-9.06-18.25.25-7.23,5.21-13.12,10.7-17.24,7.29-5.48,16.57-5.13,23.54.71,4.34,3.63,8.16,7.55,12.56,11.71l-11.56,12.38c-5.72-3.01-11.83-13.92-16.78-10.3-1.28.93-2.04,4.14-.25,5.81l35.56,32.98c1.84,1.7,4.63,1.42,5.95-.3,1.07-1.39.86-3.97-.91-5.62l-13.16-12.27,12.2-12.57c5.25,3.71,8.72,9.17,14.84,12.21l-40.36-55.87,21.84-19.84,55.43,50.92-41.98-62.57,21.69-14.99,34.15,36.84-21.91-45.05,21.89-15.07,44.29,64.25c1.51,2.19,2.57,4.13,4.73,5.76l-3.62-7.41-34.69-67.83c7.62-4.19,15.28-8.18,23.17-12,6.99-3.38,14.73-1.99,19.14,4.32,4.5,6.45,11.82,17.69,5.72,26.09,5.55.42,9.69,2.86,12.69,7.43,6.85,10.42,7.56,11.34,9.85,23.28,1.34,7-2.11,13.23-8.27,16.45-7.61,3.97-14.84,8.26-22.95,11.5-5.25,2.1-9.04,6.33-13.95,8.67l-31.4-44.36,23.02,50.33c-4.17,3.26-8.65,5.35-12.37,9.04l-39.66-39.97,30.21,45.46c-2.55,2.93-6.4,4.32-9.48,7.03-4.82,4.25-9.01,9.02-14.22,12.39l-10-9.13c-2.25,1.79-6.16,4.16-6.9,6.82,1.22,4.12,5.24,6.69,7.44,10.85l-12.11,11.13c-3.4-2.09-3.24-5.9-7.48-7.69,3.41,8.02,1.11,14.19-3.13,20.22-7.2,10.26-20.87,13.97-30.64,4.95l-33.78-31.22ZM310.11,120.57l-4.5-9.02c-.96-1.92-2.79-3.47-4.54-2.94-1.14.34-4.21,1.41-3.49,2.96,2.44,5.21,4.73,10.1,7.74,14.91.92,1.47,3.28-.15,4.14-.87,1.09-.91,1.63-3.07.66-5.03ZM328.04,152.68l-6.31-11.87c-1.01-1.89-2.99-2.77-4.42-2.9-1.3-.13-5.12,1.29-4.44,2.93,2.96,7.14,6.47,13.93,10.56,20.56,1.37,1.18,4.58-1.61,5.09-3.03s.68-3.51-.48-5.69ZM226.6,212.47l-29.62-26.57,23.77,32.13c2.4-1.65,4.38-2.12,5.86-5.56ZM218.55,243.35c0-.26-.21-.46-.46-.46s-.46.21-.46.46.21.46.46.46.46-.21.46-.46Z"/>
      <path class="cls-2" d="M559.95,39.04c14.38,1.18,13.17,21.69,11.56,31.54-.7,4.26-2.96,7.47-6.73,9.67,3.61,3.09,5.63,6.36,5.53,10.65l-.81,35.07-17.28-.47.75-35.59c.04-1.79-1.29-3.12-2.43-3.53-.94-.34-3.67-.96-3.71.5l-1.26,38.38c-5.16.68-10.25-.48-15.6-.17l-38.23,2.19-1.45-20.71-3.84-66.07,34.59-2.08c.64,5.56,1.04,10.65,1.03,16.42l-16.56,1.56c-.3,5.48.17,10.68,1.05,16.28l16.2-.61.6,16.65c-5.41.05-10.31-.03-15.96,1.03l1.1,19.22c6.25.13,11.64-.26,18.39-1.17.4,2.31-.69,5.23,1.12,8.23l2.47-77.94c9.84.3,19.58.13,29.49.94ZM554.74,56.98c-.55-2.23-6.17-3.42-6.67-1.27-1.05,4.62-.78,9.29-.56,13.98.08,1.73,3.74,1.2,4.85.69,3.38-1.56,3.29-9.76,2.38-13.4Z"/>
      <path class="cls-2" d="M845.1,250.05l-12.97-11.16,22.93-26.01c1.07-1.22,1.44-2.61,1.51-3.73s-1.89-3.91-3.27-3.67l-26.25,29.06-12.88-11.91,57.34-64.87,20.98,18.35c4.88,4.27,6.33,10.73,3.15,16.59-3.82,7.04-14.55,22.14-24.89,19.51,1.1,4.2.55,8.29-2.3,11.51l-23.35,26.32ZM870.84,196.24c3.37-2.77,6.14-5.65,7.5-9.14.62-1.58-2.74-5.65-4.34-4.42-3.53,2.71-7.21,6.42-9.27,10.44-1.1,2.15,4.04,4.82,6.11,3.11Z"/>
      <path class="cls-2" d="M378.53,151.71c-6.92-1.52-12.1-7.32-14.26-13.53l-16.2-46.56c-2.14-6.16-.89-13.42,3.43-18.02,6.04-6.43,15.42-9.57,24.1-7.7,6.06,1.31,10.93,6.49,12.96,12.33l15.71,45.29c2.29,6.59,1.94,14.56-2.51,20.05-5.23,6.44-14.56,10.05-23.24,8.14ZM387.73,129.22l-15.14-43.72c-.87-2.51-2.93-3.97-5.24-3.23-1.83.59-3.28,3.12-2.41,5.62l15.57,44.58c.91,2.6,3.6,4.01,5.87,2.72,1.44-.82,2.32-3.2,1.36-5.99Z"/>
      <path class="cls-2" d="M634.43,116.21c-2.74,12.81-13.16,18.67-24.87,16.35-11.22-2.23-18.5-11.16-16.93-23.41,2.06-16.06,5.09-31.91,8-48.04,1.12-6.2,4.76-12.34,10.63-14.76,8.68-3.57,19.47-1.8,26.42,4.49,4.5,4.07,6.05,10.91,5.11,16.98-2.53,16.27-4.88,32.18-8.35,48.39ZM617.42,112.41l7.92-46.44c.42-2.46-1.07-4.86-3.03-5.03-1.44-.13-4.24.75-4.65,3.21l-8.09,47.83c-.39,2.32,1.87,4.38,3.35,4.57,1.92.25,4.02-1.34,4.5-4.13Z"/>
      <path class="cls-2" d="M870.67,273.77c-9.09-2.16-16.1-10.24-17.37-18.98-1.03-7.09,2.52-13.77,7.59-18.49l34.84-32.38c9.05-8.42,20.83-6.16,28.67,2.35,7.73,8.39,9.62,20.25.56,28.71l-35.22,32.86c-4.92,4.59-11.86,7.63-19.06,5.93ZM877.4,255.27l34.35-31.86c1.77-1.64,2.1-4.35.9-5.83-1.05-1.3-4.26-1.98-6.01-.34l-34.98,32.63c-2.04,1.91-1.75,4.89-.32,6.17,1.54,1.37,4.01,1.13,6.06-.78Z"/>
      <path class="cls-2" d="M756.21,141.55l-14.89-6.54-8.21,17.37,16.02,8.12c-1.86,5.22-4.56,10.09-7.1,15.33l-32.44-15.44,37.05-78.58,31.45,14.81c-2.26,5.39-4.38,10.32-7.12,15.03l-15.12-6.82c-3.03,4.87-4.87,9.73-7.29,14.79l14.48,7.27-6.82,14.66Z"/>
      <path class="cls-2" d="M778.81,155.62c2.18-4.4,4.57-8.28,7.34-12.66l18.3,10.65-14.8,25.66-10.65,17.8c-2-.96-4.21-1.49-5.5-3.12-1.42-1.78.89-4.4-.63-7.14-10.05,3.97-21.9-1.82-23.85-12.5-1.14-6.22,1.05-12.71,4.2-18.05l23.22-39.34c6.59-11.16,18.95-12.43,29.25-5.94,8.22,5.17,12.56,13.29,8.95,23.09-1.84,5-4,10.08-6.91,14.16l-13.99-8.96c.76-3.96,9.16-11.74,3.04-14.69-1.69-.81-4.69-.44-6.11,2l-23.63,40.38c-1.3,2.23-.6,4.75.54,5.81,6.01,5.57,11.47-9.95,14.66-14.44-1.05-1.15-2.05-1.49-3.44-2.71Z"/>
      <path class="cls-2" d="M864.34,151.84l-40.22,55.13c-3.77,5.17-10.43,8.96-16.76,8.25-8.5-.95-16.45-6.69-19.89-14.5-2.39-5.44-1.3-12.98,2.37-18.06l40.1-55.64c5.31,3.4,9.54,6.42,13.7,10.05l-39.08,54.18c-1.43,1.98-1.09,4.79.41,6.08,1.59,1.38,4.59.67,6.24-1.59l39.4-53.75,13.73,9.84Z"/>
      <path class="cls-2" d="M705.07,154.05c-6.77,3.4-14.12.57-20.06-2.35-15.95-7.85-9.62-24.52-4.35-36.85l15.82,5.87-4.18,12.35c-.71,2.11.25,4.21,1.57,4.98,2.23,1.3,4.68.41,5.76-1.99,1.92-4.29,3.21-9.31,1.42-13.87-6.6-16.8-16.9-27.8-5.83-45.08,4.99-7.79,13.49-10.79,22.39-7.51,5.7,2.1,11.7,5.11,14.2,11.1,2.84,6.81,1.1,14.37-1.63,20.84l-16.02-5.81c-.25-1.77.61-3.31,1.23-5.04.96-2.69.07-5.03-2.4-5.55s-4.4.7-4.91,3.58c-.53,2.93.33,5.83,1.62,8.55l8.05,16.91c6.66,13.98-2.16,34.62-12.68,39.9Z"/>
      <path class="cls-2" d="M484.96,123.48c-3.92,6.24-11.3,7.45-17.93,7.96-18.59,1.44-21.31-16.29-22.53-30.06l16.48-2.51,2.48,12.81c.35,1.82,1.81,3.15,3.16,3.46,1.26.29,3.9-.11,4.25-2.02,1.24-6.78-1.93-13.2-7.23-17.12l-14.05-10.4c-10.6-7.84-15.04-24.75-5.94-35.78,6.46-7.83,20.78-8.64,28.64-3.37,6.61,4.44,7.9,12.09,9.23,19.27-5.89,1.4-11.1,2.11-17.29,2.51-.68-1.7-.84-3.47-1.23-5.37-.55-2.68-2.44-3.65-4.88-3.05-1.9.47-3.11,2.34-2.33,4.96.72,2.43,2.27,4.62,4.36,6.12l15.65,11.23c6.8,4.88,10.69,11.72,11.85,20.13.97,6.97,1.41,14.7-2.68,21.22Z"/>
      <path class="cls-2" d="M587.58,128.27l-16.38-1.54c-1.04-4.11.05-7.64.47-11.79l7.56-74.65c5.79.15,11,.78,16.76,1.54l-8.41,86.43Z"/>
      <polygon class="cls-2" points="353.79 164.64 342.66 139.23 319.62 84.67 335.11 78.11 369.26 157.71 353.79 164.64"/>
      <path class="cls-2" d="M649.77,140.12l-17.21-4.31,3.51-14.09,16.88,3.93c-.53,4.98-1.94,9.06-3.18,14.47Z"/>
      <path class="cls-2" d="M429.42,138.36l-17.19,4.51-3.41-14.25,16.71-4.46c1.57,4.62,2.68,8.93,3.9,14.2Z"/>
    </g>
    <path class="cls-3" d="M812.23,257.63c-153.84-148.31-398.48-146.12-549.69,5.13-73.48,73.5-111.58,168.91-114.52,265.14-3.02,98.75,30.97,198.37,101.84,276.07,10.29,11.29,21.08,21.82,32.28,31.61,147.63,129.02,368.71,128.53,515.7,0,14.47-12.65,28.23-26.54,41.12-41.67,65.1-76.41,95.95-171.69,93.02-266-3.06-98.73-43.13-196.4-119.75-270.27Z"/>
    <path class="cls-1" d="M931.99,527.9c2.92,94.31-27.92,189.59-93.02,266-12.89,15.13-26.65,29.02-41.12,41.67h282.16v-307.68h-148.01Z"/>
    <g>
      <path class="cls-4" d="M814.75,957.38c-4.02,3.57-8.92,6.18-14.17,9.31l-44.05-68.1,4.03,10.23-14.65,7.81c2.21,5,4.69,9.67,7.56,14.7l14.56-7.17,7.38,14.34-14.13,7.68c2.75,6.19,5.75,11.94,9.09,17.49l16.09-8.14,7.51,15.1-31.68,16.49-40.07-77.29,33.08-17.31,13.61-8.41,26.16,26.92-19.31-31.22,13.49-9.09,28.58-22.37,25.8-23.24c4.15,4.01,7.78,8.04,11.13,12.3l-12.07,11.32c3.38,4.63,7.06,8.22,11.06,12.31l12.09-10.58,11.01,11.96-11.79,11.19,13.29,14.4,13.46-11.92,11.22,12.32-26.4,24.22-47.14-51.45c-3.4,1.76-5.61,3.94-8.54,6.39l42.85,55.36-13.75,10.69-42.97-55.29c-2.97,1.99-5.53,3.64-8.1,6.57l37.59,58.74-14.16,9.23-28.21-28.4,20.57,32.9ZM756.14,897.36c0-.26-.21-.46-.46-.46s-.46.21-.46.46.21.46.46.46.46-.21.46-.46Z"/>
      <path class="cls-4" d="M379.88,1013.84l16.86-63.27c-5.1,6.17-4.01,12.79-14.51,15.79,2.8,4.34,2.9,8.76,1.17,13.21l-12.09,31.11-15.83-5.7,12.37-33.21c.61-1.63-.12-3.26-.66-4.15-.52-.85-3.48-2.45-3.96-1.24l-14.1,35.94-16.41-6.14,30.97-81.1,26.24,9.92c7.76,2.93,9.54,10.09,8.45,18.51,2.34-4.47,2.57-8.86,4.44-13.62l25.28,6.96c8.43,2.32,12.44,9.94,11.55,18.37-.37,3.5-1.12,6.36-2.03,9.71l-10.19,37.25c-2.86,10.46-10.04,21.67-22.45,18.36l-25.11-6.71ZM376.35,951.48c2.24-3.78,3.98-7.01,3.96-11.16,0-2.13-5.02-4.66-5.87-2.85-2.07,4.36-4.4,8.72-4.75,13.26-.18,2.27,5.39,2.9,6.66.74ZM398.49,945.09c0-.32-.26-.59-.59-.59s-.59.26-.59.59.26.59.59.59.59-.26.59-.59ZM397.56,948.8c0-.32-.26-.59-.59-.59s-.59.26-.59.59.26.59.59.59.59-.26.59-.59ZM409.33,1001.53l12.41-45.4c.62-2.25-.05-4.56-1.54-5.46-1-.6-4.29-1.96-4.72-.39l-14.33,52.35c-.34,1.23,3.17,1.92,4.29,1.85s3.26-.62,3.9-2.95Z"/>
      <path class="cls-4" d="M654.95,988.13l-15.3-9.13c-7.26-4.33-11.33-11.53-12.19-20.22l-17.31,2.93c.02,5.53,1.4,10.43,2.3,16.3l15.95-2.06,2.75,15.89-15.88,2.84,2.88,19.2,17.82-2.39c1.36,5.46,2.04,10.82,2.78,16.64l-35.32,5.62-8.55-52.23c-1.88-11.51-4.07-22.33-5.1-33.75l33.92-5.26c1.71,5.01,1.14,9.98,3.43,14.93-.34-9.73,4.03-17.11,12.91-19.76,6-1.79,12.96-3.03,18.69.34,6.35,3.73,9.67,10.98,11.23,18.35l-16.85,4.5c-.99-1.66-1.17-3.4-1.7-5.27-.73-2.57-2.62-3.74-4.89-3.07-2.02.59-3.26,2.7-2.42,5.2.89,2.67,2.92,4.73,5.37,6.15l15.8,9.14c8.33,4.82,13.29,12.27,14.88,21.78,1.12,6.72,2.01,14.04-1.82,20.03-3.51,5.48-10.05,7.25-16.12,8.42-8.52,1.65-16.15-1.66-20.07-9.5-2.85-5.69-4.35-11.86-5.53-18.22l16.39-4.08c1.89,4.74,2.31,17.65,8.55,15.57,5.56-1.85,1.87-13.81-6.61-18.87Z"/>
      <path class="cls-4" d="M553.78,1037.88l-4.7-62.26-3,15.38c-2.36,12.12-13.5,12.91-23.91,12.35l-1.17,34.13-17-.57,2.26-86.72c8.96-.02,17.62.04,26.39.79,11.51.99,14.64,12.29,15.45,21.05,1.24-7.07-.44-13.4-.51-20.84l27.81-2.05c5.8-.43,10.93,2.29,13.21,7.58,3.65,8.46,6.75,27.33-3.14,33.3,3.81,1.61,6.54,4.86,6.83,9.18l2.45,35.51c-5.8.87-10.87,1.23-16.9,1.25l-2.55-34.9c-.12-1.62-1.3-2.72-1.97-3.43-.77-.82-4.6-1.12-4.52.08l2.3,38.8-17.31,1.36ZM573.52,967.4c-.87-2.21-6.1-2.74-6.59-.13-.81,4.29.11,8.88.7,13.14.3,2.14,3.8,1.42,5.06.69,3.22-1.87,2.15-10.36.83-13.7ZM530.41,970.98c.03-2.94-5.73-6.36-6.63-3.8-2.19,6.22-.84,13.27-1.15,19.44.76,1.22,4,.61,5.18-.33,3.9-3.11,2.55-10.13,2.61-15.31Z"/>
      <path class="cls-4" d="M745.07,967.9c4.51,10.72,5.84,24.34-6.87,29.53l-23.48,9.59-32.87-80.35c8.31-3.66,16.09-6.85,24.32-9.94s17.53.34,21.15,8.97l17.75,42.2ZM730.85,980.38l-17.93-44.57c-.87-2.15-2.62-3.43-4.51-3.26-1.57.13-3.34.48-4.3,2.29l20.79,50.78c2.27.5,7.16-2.22,5.95-5.25Z"/>
      <path class="cls-4" d="M464.01,1029.59c-8.42,4.13-19.07,2.13-25.64-3.99-4.83-4.5-6.62-11.93-5.51-18.49l8.13-48.34c1-5.94,5.28-11.69,10.71-13.8,8.37-3.26,18.39-1.59,25.35,3.99,4.92,3.95,6.95,11.04,5.9,17.27l-8,47.42c-1.08,6.39-4.66,12.86-10.93,15.94ZM457.69,1010.84l7.81-46.21c.48-2.81-1.12-5.03-3.63-4.98-1.45.03-3.78,1.13-4.18,3.49l-7.93,46.74c-.49,2.86,1.18,5.39,3.87,5.57,1.58.11,3.58-1.78,4.05-4.6Z"/>
      <path class="cls-4" d="M232.45,923c-.37-2.35-5.17-5.73-7.39-5.91-3.73,1.83-5.71,6.32-9.09,9.34-4.69-2.66-8.88-6.26-13.63-10.16l59.32-63.74,23.49,17.97-46.12,73.9-12.92-9.83,6.33-11.56ZM241.31,910.09l22.47-36.5-28.9,32.06c2.08,2.11,3.38,3.9,6.43,4.43Z"/>
      <path class="cls-4" d="M316.2,973.26c-2.93-2.1-5.7-3.3-8.97-4.61l-7.46,11.62-14.95-7.47,46.04-73.96,26.44,13.11-31.19,81.39-14.58-7.06,4.66-13.02ZM337.19,919.6c0-.26-.21-.46-.46-.46s-.46.21-.46.46.21.46.46.46.46-.21.46-.46ZM321.93,959l14.36-38.21-21.39,34.78c.98,2.17,3.92,3.92,7.03,3.44Z"/>
      <path class="cls-4" d="M252.49,932.85l12.47-20.21,14.41,8.93-11.53,19.22c-1.13,1.89.15,4.19,1.63,4.93s3.73.57,4.99-1.43l35.93-57.45,14.9,9.3-35.65,56.9c-7.04,11.24-21.04,12.57-31.05,4.78-7.68-5.98-11.65-15.96-6.09-24.97Z"/>
      <path class="cls-4" d="M235.9,871l-11.28,12.85c-3.44-4.04-7.52-7.34-12.09-11.25l-26.55,28.74c-4.51-3.89-8.68-7.39-12.85-11.88l58.72-63.97,25.49,23.62-11.26,12.16-12.75-11.18c-3.4,3.05-5.96,6.27-9.04,9.82l11.62,11.09Z"/>
      <path class="cls-4" d="M707.05,1008.95c-4.96,2.76-10.32,3.61-15.97,5.71l-26.92-82.64,15.98-5.15,26.92,82.09Z"/>
    </g>
  </g>
</svg>