<svg width="1373" height="1373" viewBox="0 0 1373 1373" fill="none" xmlns="http://www.w3.org/2000/svg">
<circle cx="685.926" cy="681.726" r="529.141" stroke="#F4B22A" stroke-width="50.3944"/>
<path d="M1004.06 1083.33C1018.46 1101.51 1015.48 1128.07 996.262 1141.05C921.962 1191.25 836.402 1222.8 746.863 1232.7C643.375 1244.15 538.756 1226.22 444.987 1180.96C351.217 1135.71 272.089 1064.96 216.662 976.822C168.706 900.562 140.171 813.951 133.244 724.551C131.453 701.427 150.391 682.567 173.584 682.531L274.817 682.372C298.01 682.335 316.595 701.169 319.264 724.208C325.586 778.772 344.031 831.423 373.459 878.22C410.366 936.909 463.055 984.018 525.493 1014.15C587.931 1044.28 657.593 1056.22 726.502 1048.6C781.448 1042.53 834.144 1024.21 880.794 995.21C900.492 982.965 926.799 985.798 941.201 1003.98L1004.06 1083.33Z" fill="#F4B22A"/>
<path d="M205.085 769.972L265.435 769.272L267.451 780.728L207.102 781.428L205.085 769.972ZM213.912 741.608L225.711 741.539L234.018 788.738L222.219 788.807L213.912 741.608ZM201.456 749.351L261.805 748.651L263.822 760.107L203.472 760.807L201.456 749.351ZM234.889 741.341L246.688 741.272L254.995 788.472L243.196 788.54L234.889 741.341Z" fill="#C2272D"/>
<path d="M214.935 816.367L271.774 798.581L284.281 838.546L271.847 842.437L264.17 817.903L254.4 820.96L261.314 843.051L248.88 846.942L241.967 824.85L219.764 831.798L214.935 816.367ZM233.555 868.939L226.59 852.942L289.043 847.189L297.866 867.452L251.109 909.253L244.143 893.256L278.51 864.082L278.324 863.655L233.555 868.939ZM253.798 856.572L266.894 886.648L255.803 891.478L242.707 861.402L253.798 856.572ZM317.602 905.566L325.609 919.345L290.307 939.858C286.945 941.79 283.503 942.658 279.981 942.462C276.486 942.273 273.173 941.126 270.044 939.021C266.941 936.922 264.284 933.971 262.073 930.166C260.154 926.863 258.97 923.515 258.523 920.12C258.091 916.716 258.635 913.485 260.155 910.427C261.691 907.359 264.442 904.685 268.407 902.403L276.531 916.382C275.269 917.183 274.306 918.034 273.642 918.936C272.987 919.854 272.638 920.797 272.595 921.764C272.578 922.738 272.867 923.736 273.461 924.759C274.065 925.798 274.798 926.538 275.659 926.979C276.531 927.437 277.518 927.592 278.62 927.445C279.74 927.287 280.967 926.832 282.301 926.08L317.602 905.566ZM287.595 968.018L277.142 954.048L336.604 934.106L349.845 951.801L313.938 1003.22L303.485 989.253L330.232 952.966L329.953 952.594L287.595 968.018ZM304.457 951.333L324.11 977.597L314.424 984.844L294.771 958.58L304.457 951.333ZM317.705 1007.47L360.643 966.198L378.458 984.731C381.521 987.918 383.621 991.264 384.758 994.769C385.896 998.275 386.012 1001.74 385.108 1005.16C384.204 1008.59 382.228 1011.76 379.181 1014.69C376.106 1017.65 372.855 1019.45 369.428 1020.11C366.014 1020.79 362.587 1020.41 359.146 1018.98C355.719 1017.57 352.433 1015.23 349.29 1011.96L338.649 1000.89L347.706 992.185L356.09 1000.91C357.406 1002.28 358.696 1003.28 359.958 1003.92C361.248 1004.57 362.519 1004.78 363.771 1004.58C365.036 1004.38 366.277 1003.7 367.493 1002.53C368.723 1001.35 369.467 1000.12 369.725 998.853C370.011 997.583 369.865 996.285 369.288 994.957C368.739 993.63 367.805 992.281 366.489 990.912L362.539 986.802L328.91 1019.13L317.705 1007.47ZM361.596 1013.69L352.206 1043.36L340.034 1030.7L349.666 1001.27L361.596 1013.69ZM373.619 1061.08L355.899 1046.55L393.664 1000.5L411.204 1014.88C415.941 1018.77 419.277 1023.04 421.213 1027.72C423.176 1032.38 423.681 1037.21 422.728 1042.2C421.801 1047.18 419.371 1052.07 415.437 1056.86C411.504 1061.66 407.186 1065.02 402.485 1066.93C397.796 1068.82 392.979 1069.29 388.033 1068.31C383.101 1067.33 378.296 1064.92 373.619 1061.08ZM377.105 1046.19L381.872 1050.1C384.151 1051.97 386.394 1053.19 388.6 1053.77C390.821 1054.37 393.09 1054.11 395.404 1053C397.734 1051.9 400.214 1049.75 402.845 1046.54C405.476 1043.33 407.094 1040.47 407.7 1037.96C408.32 1035.46 408.1 1033.16 407.038 1031.06C405.992 1028.97 404.269 1026.95 401.87 1024.98L397.463 1021.37L377.105 1046.19ZM467.303 1089.56C463.787 1095.18 459.729 1099.24 455.127 1101.73C450.535 1104.21 445.76 1105.28 440.801 1104.95C435.853 1104.6 431.094 1102.99 426.524 1100.14C421.922 1097.26 418.385 1093.66 415.914 1089.35C413.47 1085.03 412.357 1080.27 412.577 1075.05C412.823 1069.83 414.693 1064.43 418.188 1058.84C421.704 1053.22 425.749 1049.16 430.324 1046.67C434.926 1044.18 439.693 1043.1 444.625 1043.44C449.584 1043.77 454.364 1045.38 458.967 1048.26C463.536 1051.12 467.057 1054.7 469.528 1059.01C472.009 1063.31 473.135 1068.07 472.905 1073.3C472.686 1078.52 470.819 1083.93 467.303 1089.56ZM453.2 1080.74C455.091 1077.71 456.282 1074.91 456.772 1072.34C457.288 1069.76 457.1 1067.44 456.206 1065.4C455.34 1063.35 453.772 1061.61 451.504 1060.19C449.235 1058.77 446.981 1058.12 444.741 1058.23C442.528 1058.33 440.366 1059.17 438.255 1060.76C436.171 1062.33 434.183 1064.64 432.291 1067.66C430.4 1070.68 429.196 1073.49 428.68 1076.07C428.19 1078.64 428.378 1080.96 429.245 1083.01C430.138 1085.05 431.719 1086.78 433.987 1088.2C436.256 1089.62 438.497 1090.28 440.71 1090.18C442.95 1090.07 445.112 1089.23 447.196 1087.65C449.307 1086.06 451.308 1083.76 453.2 1080.74Z" fill="#0A377B"/>
<path d="M458.036 1118.34L483.34 1064.43L506.611 1075.35C510.613 1077.23 513.743 1079.66 516.003 1082.65C518.263 1085.63 519.555 1088.95 519.88 1092.59C520.204 1096.24 519.469 1099.97 517.673 1103.8C515.861 1107.66 513.432 1110.6 510.386 1112.62C507.357 1114.64 503.941 1115.69 500.135 1115.77C496.347 1115.86 492.4 1114.94 488.293 1113.01L474.393 1106.49L479.731 1095.11L490.682 1100.25C492.402 1101.06 494.008 1101.45 495.499 1101.42C497.015 1101.38 498.362 1100.96 499.539 1100.14C500.733 1099.33 501.688 1098.16 502.405 1096.63C503.129 1095.09 503.414 1093.61 503.257 1092.21C503.127 1090.8 502.583 1089.52 501.627 1088.36C500.696 1087.2 499.37 1086.21 497.651 1085.41L492.491 1082.98L472.673 1125.21L458.036 1118.34ZM506.819 1140.77L526.035 1084.4L550.368 1092.69C554.552 1094.12 557.953 1096.13 560.572 1098.72C563.19 1101.31 564.883 1104.34 565.651 1107.79C566.418 1111.25 566.12 1114.98 564.757 1118.98C563.38 1123.02 561.321 1126.11 558.578 1128.27C555.854 1130.44 552.636 1131.67 548.924 1131.99C545.232 1132.3 541.238 1131.73 536.944 1130.27L522.411 1125.31L526.464 1113.42L537.915 1117.33C539.713 1117.94 541.32 1118.24 542.737 1118.23C544.177 1118.21 545.406 1117.82 546.423 1117.06C547.458 1116.31 548.248 1115.13 548.792 1113.54C549.342 1111.92 549.441 1110.49 549.088 1109.25C548.759 1107.99 548.034 1106.9 546.912 1105.98C545.815 1105.06 544.367 1104.29 542.568 1103.67L537.173 1101.83L522.124 1145.99L506.819 1140.77ZM548.67 1126.15L553.943 1156.83L537.318 1151.16L532.375 1120.6L548.67 1126.15ZM558.68 1158L571.643 1099.88L613.537 1109.22L610.701 1121.93L584.588 1116.11L582.36 1126.1L606.316 1131.44L603.48 1144.16L579.525 1138.82L577.297 1148.81L603.296 1154.61L600.46 1167.32L558.68 1158ZM644.921 1131.58C644.984 1129.63 644.43 1128.05 643.261 1126.83C642.11 1125.6 640.235 1124.85 637.634 1124.55C635.977 1124.37 634.596 1124.42 633.491 1124.7C632.407 1124.97 631.577 1125.41 631 1126.03C630.424 1126.65 630.077 1127.39 629.96 1128.26C629.842 1128.97 629.894 1129.63 630.118 1130.24C630.364 1130.83 630.788 1131.39 631.391 1131.93C631.996 1132.45 632.789 1132.95 633.769 1133.43C634.749 1133.91 635.926 1134.37 637.3 1134.82L642.038 1136.4C645.235 1137.47 647.935 1138.7 650.139 1140.09C652.342 1141.49 654.099 1143.05 655.409 1144.75C656.722 1146.44 657.617 1148.28 658.097 1150.27C658.595 1152.25 658.727 1154.37 658.493 1156.63C658.036 1160.52 656.693 1163.71 654.463 1166.19C652.234 1168.67 649.248 1170.41 645.507 1171.41C641.784 1172.42 637.419 1172.64 632.41 1172.08C627.266 1171.5 622.862 1170.23 619.199 1168.28C615.556 1166.33 612.852 1163.66 611.088 1160.26C609.345 1156.84 608.743 1152.66 609.28 1147.7L624.538 1149.42C624.431 1151.24 624.713 1152.81 625.383 1154.14C626.054 1155.46 627.086 1156.52 628.478 1157.32C629.89 1158.13 631.617 1158.64 633.66 1158.87C635.374 1159.07 636.833 1159.02 638.037 1158.72C639.241 1158.43 640.183 1157.94 640.865 1157.25C641.547 1156.57 641.951 1155.75 642.079 1154.79C642.161 1153.88 641.951 1153.05 641.449 1152.32C640.968 1151.56 640.113 1150.84 638.883 1150.15C637.655 1149.45 635.97 1148.73 633.828 1148.01L628.075 1146.07C622.963 1144.35 619.043 1141.98 616.317 1138.99C613.613 1135.97 612.53 1132.15 613.069 1127.53C613.472 1123.77 614.843 1120.6 617.182 1118.01C619.543 1115.41 622.613 1113.52 626.393 1112.35C630.193 1111.17 634.433 1110.85 639.115 1111.38C643.893 1111.91 647.936 1113.18 651.243 1115.17C654.55 1117.16 656.985 1119.72 658.546 1122.84C660.128 1125.94 660.711 1129.43 660.295 1133.31L644.921 1131.58ZM680.618 1115.42L678.797 1174.95L662.636 1174.46L664.457 1114.93L680.618 1115.42ZM709.331 1173.58L686.451 1174.86L683.146 1115.39L705.794 1114.13C711.91 1113.79 717.261 1114.69 721.846 1116.82C726.448 1118.94 730.083 1122.15 732.75 1126.47C735.436 1130.77 736.951 1136.01 737.295 1142.21C737.639 1148.4 736.725 1153.79 734.553 1158.38C732.38 1162.94 729.143 1166.54 724.843 1169.17C720.541 1171.78 715.37 1173.25 709.331 1173.58ZM701.833 1160.25L707.989 1159.91C710.931 1159.75 713.411 1159.13 715.43 1158.07C717.468 1157.01 718.964 1155.28 719.919 1152.9C720.893 1150.52 721.265 1147.25 721.035 1143.11C720.805 1138.97 720.064 1135.77 718.812 1133.51C717.579 1131.24 715.862 1129.7 713.661 1128.87C711.479 1128.04 708.839 1127.71 705.742 1127.88L700.051 1128.2L701.833 1160.25ZM746.331 1171.09L736.309 1112.38L778.619 1105.16L780.812 1118L754.439 1122.51L756.162 1132.6L780.356 1128.47L782.548 1141.31L758.354 1145.44L760.077 1155.53L786.335 1151.05L788.527 1163.89L746.331 1171.09ZM829.442 1090.6L845.941 1147.83L832.975 1151.57L803.63 1127.46L803.294 1127.56L811.963 1157.63L796.427 1162.11L779.928 1104.88L793.117 1101.08L822.095 1125.17L822.542 1125.04L813.906 1095.08L829.442 1090.6ZM833.573 1103.04L828.525 1091.03L876.245 1070.97L881.293 1082.98L864.779 1089.92L882.807 1132.81L868.116 1138.99L850.088 1096.09L833.573 1103.04ZM904.717 1123.15L875.781 1071.1L913.297 1050.24L919.627 1061.63L896.243 1074.63L901.216 1083.57L922.668 1071.65L928.998 1083.04L907.546 1094.96L912.52 1103.91L935.802 1090.97L942.132 1102.35L904.717 1123.15Z" fill="#C0282C"/>
</svg>
